<?xml version="1.0" encoding="utf-8"?>
<!-- Generator: Adobe Illustrator 27.1.1, SVG Export Plug-In . SVG Version: 6.00 Build 0)  -->
<svg version="1.1" id="Warstwa_2_00000054252536983000363060000013903723512966797209_"
	 xmlns="http://www.w3.org/2000/svg" xmlns:xlink="http://www.w3.org/1999/xlink" x="0px" y="0px" viewBox="0 0 1811.9 2606"
	 style="enable-background:new 0 0 1811.9 2606;" xml:space="preserve">
<style type="text/css">
	.st0{clip-path:url(#SVGID_00000098187980464260153170000000029581666745619381_);}
	.st1{fill:#B3E8FF;}
	.st2{opacity:0.12;}
	.st3{fill:#1E0D00;}
	.st4{opacity:0.12;fill:#606060;enable-background:new    ;}
	.st5{fill:#FFFFFF;}
	.st6{fill:#FF8C03;}
</style>
<g id="Layer_1">
	<g>
		<g>
			<defs>
				<rect id="SVGID_1_" width="1811.9" height="2606"/>
			</defs>
			<clipPath id="SVGID_00000042000118608606561700000015471510622897115537_">
				<use xlink:href="#SVGID_1_"  style="overflow:visible;"/>
			</clipPath>
			<g style="clip-path:url(#SVGID_00000042000118608606561700000015471510622897115537_);">
				<rect class="st1" width="1825.6" height="2606"/>
				<g class="st2">
					<path class="st3" d="M953.6,1126.3c-119,0-215.4,96.4-215.4,215.4s96.4,215.4,215.4,215.4s215.4-96.5,215.4-215.4
						S1072.6,1126.3,953.6,1126.3L953.6,1126.3z"/>
					<g>
						<path class="st3" d="M977.1,1055c0,12.1-9,21.9-20.2,21.9l0,0c-11.2,0-20.2-9.8-20.2-21.9v-38.6c0-12.1,9-21.9,20.2-21.9l0,0
							c11.2,0,20.2,9.8,20.2,21.9V1055z"/>
						<path class="st3" d="M977.1,1644.3c0,12.1-9,21.9-20.2,21.9l0,0c-11.2,0-20.2-9.8-20.2-21.9v-38.6c0-12.1,9-21.9,20.2-21.9
							l0,0c11.2,0,20.2,9.8,20.2,21.9V1644.3z"/>
						<path class="st3" d="M1232.2,1350.6c-12.1,0-21.9-9-21.9-20.2l0,0c0-11.2,9.8-20.2,21.9-20.2h38.6c12.1,0,21.9,9,21.9,20.2
							l0,0c0,11.2-9.8,20.2-21.9,20.2H1232.2z"/>
						<path class="st3" d="M643,1350.6c-12.1,0-21.9-9-21.9-20.2l0,0c0-11.2,9.8-20.2,21.9-20.2h38.6c12.1,0,21.9,9,21.9,20.2l0,0
							c0,11.2-9.8,20.2-21.9,20.2H643z"/>
						<path class="st3" d="M1165.8,1150c-8.5,8.5-21.9,9.1-29.7,1.2l0,0c-7.9-7.9-7.4-21.2,1.2-29.7l27.3-27.3
							c8.5-8.5,21.8-9.1,29.7-1.2l0,0c7.9,7.9,7.4,21.2-1.2,29.7L1165.8,1150L1165.8,1150z"/>
						<path class="st3" d="M749.2,1566.6c-8.5,8.5-21.9,9.1-29.7,1.2l0,0c-7.9-7.9-7.3-21.2,1.2-29.7l27.3-27.3
							c8.5-8.5,21.8-9.1,29.7-1.2l0,0c7.9,7.9,7.3,21.2-1.2,29.8L749.2,1566.6L749.2,1566.6z"/>
						<path class="st3" d="M1137.3,1539.4c-8.5-8.5-9.1-21.9-1.2-29.8l0,0c7.9-7.9,21.2-7.3,29.7,1.2l27.3,27.3
							c8.5,8.5,9.1,21.9,1.2,29.7l0,0c-7.9,7.9-21.2,7.4-29.8-1.2L1137.3,1539.4z"/>
						<path class="st3" d="M720.6,1122.7c-8.5-8.5-9.1-21.8-1.2-29.7l0,0c7.9-7.9,21.2-7.3,29.7,1.2l27.3,27.3
							c8.5,8.5,9.1,21.8,1.2,29.7l0,0c-7.9,7.9-21.2,7.4-29.7-1.2L720.6,1122.7L720.6,1122.7z"/>
					</g>
				</g>
				<path class="st4" d="M1858.9,1002.5c2.9-21.5-11.9-40.5-32.8-45.5c-4.9-1.2-10.1-1.5-15.1-1.4c0.1-0.5,0.2-0.8,0.5-1.3
					c2.7-7.8,3.7-17.8,1-25.7c-2.8-8.1-6.9-16-12.5-22.5c-10.6-12.3-26.6-19-42.4-21.2c-8.4-1.1-16.7-0.5-25,0.8
					c0-6.3-0.9-12.5-2.4-18.6c-4.1-16.1-17-30.2-30.5-39.6c-14.2-9.8-31.6-11.3-48.3-7.7c-1.7,0.4-3.4,0.8-5.2,1.4
					c-5.9-13.3-21.2-21.2-35.2-24c-9.4-1.9-19.6-1.2-28.7,1.3c-8.8,2.5-16.1,7.2-23,13c-6.8,5.6-12,13.5-16.1,21.2
					c-4.3,8.5-5.1,18.5-4.7,27.9c0.2,7.7,2.9,14.5,6.8,20.8c-2,1.1-3.8,2.3-5.5,3.7c-5.6,4.7-9.7,11-11.6,17.7
					c-2.2-0.9-4.4-1.8-6.7-2.4c-8.7-2.6-17.4-3.1-26.4-2.7c-8.7,0.5-17.1,3.7-24.8,7.6c-15.6,7.8-30.5,16.8-38.7,32.9
					c-2,4.1-3.5,8.8-4.3,13.7c-1.5-0.4-3-0.8-4.4-1.1c-11.3-2.2-22.7-1.3-33.4,3c-19.2,7.5-31.6,28.8-32.7,48.5c-0.1,1-0.1,2,0,3
					h501.5C1858.5,1004.6,1858.7,1003.6,1858.9,1002.5L1858.9,1002.5z"/>
				<path class="st4" d="M1928.7,1862.8c-9.5-2.2-19.6-3-29.3-2.7c0.3-0.8,0.5-1.6,0.9-2.4c5.1-15.2,7.1-34.5,1.9-49.8
					c-5.3-15.7-13.3-31-24.1-43.6c-20.5-23.7-51.5-36.8-82.2-41c-16.2-2.2-32.3-1-48.3,1.6c-0.1-12.2-1.7-24.3-4.8-36.1
					c-7.9-31.2-32.9-58.5-59.1-76.7c-27.6-19.2-61.5-22-93.6-15c-3.4,0.8-6.7,1.7-10.1,2.7c-11.6-25.9-41.3-41-68.5-46.5
					c-18-3.7-37.9-2.4-55.5,2.6c-17.1,4.7-31.3,13.9-44.6,25.1c-13.1,10.9-23.3,26.1-31,41.1c-8.5,16.5-9.9,35.8-9.3,54
					c0.5,14.9,5.7,28.1,13.3,40.3c-3.8,2-7.4,4.3-10.8,7.3c-10.8,9.2-18.9,21.4-22.5,34.4c-4.2-1.8-8.4-3.3-12.9-4.6
					c-16.8-4.9-33.7-6.1-51.1-5.2c-16.8,1-33.1,7.3-48,14.7c-30.3,15.1-59.2,32.7-74.9,63.8c-3.9,7.9-6.7,17.1-8.2,26.5
					c-2.9-0.7-5.8-1.4-8.6-2c-21.8-4.3-43.9-2.5-64.6,5.6c-37.1,14.6-61.3,55.8-63.3,94.2c-0.2,3-0.2,6.1,0,9h971
					c0.8-3,1.5-6,1.9-9.1C1998,1909.2,1969.2,1872.6,1928.7,1862.8L1928.7,1862.8z"/>
				<path class="st5" d="M1810.4,984.7c0.2-1,0.5-2,0.6-3c2.9-21.5-11.9-40.5-32.8-45.5c-4.9-1.2-10.1-1.5-15.1-1.4
					c0.1-0.5,0.2-0.8,0.5-1.3c2.7-7.8,3.7-17.8,1-25.7c-2.8-8.1-6.9-16-12.5-22.5c-10.6-12.3-26.6-19-42.4-21.2
					c-8.4-1.1-16.7-0.5-25,0.8c0-6.3-0.9-12.5-2.4-18.6c-4.1-16.1-17-30.2-30.5-39.6c-14.2-9.8-31.6-11.3-48.3-7.7
					c-1.7,0.4-3.4,0.8-5.2,1.4c-5.9-13.3-21.2-21.2-35.2-24c-9.4-1.9-19.6-1.2-28.7,1.3c-8.8,2.5-16.1,7.2-23,13
					c-6.8,5.6-12,13.5-16.1,21.2c-4.3,8.5-5.1,18.5-4.7,27.9c0.2,7.7,2.9,14.5,6.8,20.8c-2,1.1-3.8,2.3-5.5,3.7
					c-5.6,4.7-9.7,11-11.6,17.7c-2.2-0.9-4.4-1.8-6.7-2.4c-8.7-2.6-17.4-3.1-26.4-2.7c-8.7,0.5-17.1,3.7-24.8,7.6
					c-15.6,7.8-30.5,16.8-38.7,32.9c-2,4.1-3.5,8.8-4.3,13.7c-1.5-0.4-3-0.8-4.4-1.1c-11.3-2.2-22.7-1.3-33.4,3
					c-19.2,7.5-31.6,28.8-32.7,48.5c-0.1,1-0.1,2,0,3L1810.4,984.7L1810.4,984.7z"/>
				<path class="st4" d="M430.4,1254.9c1-3,1.8-6,2.2-9.1c3.8-27.3-15-51.3-41.5-57.7c-6.2-1.4-12.8-1.9-19.2-1.7
					c0.2-0.5,0.4-1,0.6-1.6c3.4-9.9,4.6-22.5,1.3-32.6c-3.5-10.3-8.7-20.3-15.8-28.5c-13.4-15.5-33.7-24-53.8-26.8
					c-10.6-1.4-21.1-0.7-31.6,1c-0.1-8-1.1-15.9-3.1-23.6c-5.2-20.5-21.6-38.2-38.7-50.2c-18-12.5-40.2-14.4-61.2-9.9
					c-2.2,0.5-4.4,1.1-6.6,1.8c-7.5-16.9-27-26.8-44.8-30.4c-11.8-2.4-24.8-1.6-36.3,1.7c-11.2,3.1-20.5,9-29.2,16.4
					c-8.6,7.1-15.2,17.1-20.3,26.9c-5.5,10.8-6.4,23.4-6.1,35.3c0.3,9.8,3.7,18.4,8.7,26.4c-2.5,1.3-4.9,2.8-7,4.8
					c-7,6-12.3,14-14.7,22.5c-2.8-1.2-5.5-2.2-8.4-3.1c-11-3.2-22-4-33.4-3.4c-11,0.6-21.7,4.8-31.4,9.6
					c-19.8,9.9-38.7,21.4-49,41.7c-2.5,5.2-4.4,11.1-5.4,17.3c-1.9-0.4-3.8-0.9-5.7-1.3c-14.3-2.8-28.7-1.6-42.3,3.7
					c-24.3,9.6-40,36.5-41.4,61.6c-0.1,3.1,0,6.1,0.3,9H430.4L430.4,1254.9z"/>
				<path class="st5" d="M406.4,1237c1-3,1.8-6,2.2-9.1c3.8-27.3-15-51.3-41.5-57.7c-6.2-1.4-12.8-1.9-19.2-1.7
					c0.2-0.5,0.4-1,0.6-1.6c3.4-9.9,4.6-22.5,1.3-32.6c-3.5-10.3-8.7-20.3-15.8-28.5c-13.4-15.5-33.7-24-53.8-26.8
					c-10.6-1.4-21.1-0.7-31.6,1c-0.1-8-1.1-15.9-3.1-23.6c-5.2-20.5-21.6-38.2-38.7-50.2c-18-12.5-40.2-14.4-61.2-9.9
					c-2.2,0.5-4.4,1.1-6.6,1.8c-7.5-16.9-27-26.8-44.8-30.4c-11.8-2.4-24.8-1.6-36.3,1.7c-11.2,3.1-20.5,9-29.2,16.4
					c-8.6,7.1-15.2,17.1-20.3,26.9c-5.5,10.8-6.4,23.4-6.1,35.3c0.3,9.8,3.7,18.4,8.7,26.4c-2.5,1.3-4.9,2.8-7,4.8
					c-7,6-12.3,14-14.7,22.5c-2.8-1.2-5.5-2.2-8.4-3.1c-11-3.2-22-4-33.4-3.4c-11,0.6-21.7,4.8-31.4,9.6
					c-19.8,9.9-38.7,21.4-49,41.7c-2.5,5.2-4.4,11.1-5.4,17.3c-1.9-0.4-3.8-0.9-5.7-1.3c-14.3-2.8-28.7-1.6-42.3,3.7
					c-24.3,9.6-40,36.5-41.4,61.6c-0.1,3.1,0,6.1,0.3,9H406.4L406.4,1237z"/>
				<g>
					<path class="st6" d="M922.6,1115c-119,0-215.4,96.4-215.4,215.4s96.4,215.4,215.4,215.4s215.4-96.5,215.4-215.4
						C1138,1211.4,1041.6,1115,922.6,1115L922.6,1115z"/>
					<g>
						<path class="st6" d="M946.1,1043.7c0,12.1-9,21.9-20.2,21.9l0,0c-11.2,0-20.2-9.8-20.2-21.9v-38.6c0-12.1,9-21.9,20.2-21.9
							l0,0c11.2,0,20.2,9.8,20.2,21.9V1043.7z"/>
						<path class="st6" d="M946.1,1632.9c0,12.1-9,21.9-20.2,21.9l0,0c-11.2,0-20.2-9.8-20.2-21.9v-38.6c0-12.1,9-21.9,20.2-21.9
							l0,0c11.2,0,20.2,9.8,20.2,21.9V1632.9z"/>
						<path class="st6" d="M1201.2,1339.2c-12.1,0-21.9-9-21.9-20.2l0,0c0-11.2,9.8-20.2,21.9-20.2h38.6c12.1,0,21.9,9,21.9,20.2
							l0,0c0,11.2-9.8,20.2-21.9,20.2H1201.2z"/>
						<path class="st6" d="M612,1339.2c-12.1,0-21.9-9-21.9-20.2l0,0c0-11.2,9.8-20.2,21.9-20.2h38.6c12.1,0,21.9,9,21.9,20.2l0,0
							c0,11.2-9.8,20.2-21.9,20.2H612z"/>
						<path class="st6" d="M1134.8,1138.6c-8.5,8.5-21.9,9.1-29.7,1.2l0,0c-7.9-7.9-7.4-21.2,1.2-29.7l27.3-27.3
							c8.5-8.5,21.8-9.1,29.7-1.2l0,0c7.9,7.9,7.4,21.2-1.2,29.7L1134.8,1138.6L1134.8,1138.6z"/>
						<path class="st6" d="M718.2,1555.2c-8.5,8.5-21.9,9.1-29.7,1.2l0,0c-7.9-7.9-7.3-21.2,1.2-29.7l27.3-27.3
							c8.5-8.5,21.8-9.1,29.7-1.2l0,0c7.9,7.9,7.3,21.2-1.2,29.8L718.2,1555.2L718.2,1555.2z"/>
						<path class="st6" d="M1106.3,1528c-8.5-8.5-9.1-21.9-1.2-29.8l0,0c7.9-7.9,21.2-7.3,29.7,1.2l27.3,27.3
							c8.5,8.5,9.1,21.9,1.2,29.7l0,0c-7.9,7.9-21.2,7.4-29.8-1.2L1106.3,1528z"/>
						<path class="st6" d="M689.6,1111.3c-8.5-8.5-9.1-21.8-1.2-29.7l0,0c7.9-7.9,21.2-7.3,29.7,1.2l27.3,27.3
							c8.5,8.5,9.1,21.8,1.2,29.7l0,0c-7.9,7.9-21.2,7.4-29.7-1.2L689.6,1111.3L689.6,1111.3z"/>
					</g>
				</g>
				<path class="st5" d="M1921.6,1924.9c0.8-3,1.5-6,1.9-9.1c5.8-41.8-22.9-78.5-63.5-88.2c-9.5-2.2-19.6-3-29.3-2.7
					c0.3-0.8,0.5-1.7,0.9-2.4c5.1-15.2,7.1-34.5,1.9-49.8c-5.3-15.7-13.3-31-24.1-43.6c-20.5-23.7-51.5-36.8-82.2-41
					c-16.2-2.2-32.3-1-48.3,1.6c-0.1-12.2-1.7-24.3-4.8-36.1c-7.9-31.2-32.9-58.5-59.1-76.7c-27.6-19.2-61.5-22-93.6-15
					c-3.4,0.8-6.7,1.7-10.1,2.7c-11.6-25.9-41.3-41-68.5-46.5c-18-3.7-37.9-2.4-55.5,2.6c-17.1,4.7-31.3,13.9-44.6,25.1
					c-13.1,10.9-23.3,26.1-31,41.1c-8.5,16.5-9.9,35.8-9.3,54c0.5,14.9,5.7,28.1,13.3,40.3c-3.8,2-7.4,4.3-10.8,7.3
					c-10.8,9.2-18.9,21.4-22.5,34.4c-4.2-1.8-8.4-3.3-12.9-4.6c-16.8-4.9-33.7-6.1-51.1-5.2c-16.8,1-33.1,7.3-48,14.7
					c-30.3,15.1-59.2,32.7-74.9,63.8c-3.9,7.9-6.7,17.1-8.2,26.5c-2.9-0.7-5.8-1.3-8.6-2c-21.8-4.3-43.9-2.5-64.6,5.6
					c-37.1,14.7-61.3,55.8-63.3,94.2c-0.2,3-0.2,6.1,0,9L1921.6,1924.9L1921.6,1924.9z"/>
			</g>
		</g>
	</g>
</g>
</svg>
