<?xml version="1.0" encoding="utf-8"?>
<!-- Generator: Adobe Illustrator 27.1.1, SVG Export Plug-In . SVG Version: 6.00 Build 0)  -->
<svg version="1.1" id="Warstwa_2_00000054252536983000363060000013903723512966797209_"
	 xmlns="http://www.w3.org/2000/svg" xmlns:xlink="http://www.w3.org/1999/xlink" x="0px" y="0px" viewBox="0 0 1811.9 2606"
	 style="enable-background:new 0 0 1811.9 2606;" xml:space="preserve">
<style type="text/css">
	.st0{clip-path:url(#SVGID_00000039817487630468419210000018160487025151539135_);}
	.st1{fill:#B3E8FF;}
	.st2{opacity:0.12;}
	.st3{fill:#1E0D00;}
	.st4{opacity:0.12;fill:#606060;}
	.st5{fill:#FFFFFF;}
	.st6{fill:#FF8C03;}
</style>
<g id="Layer_1">
	<g>
		<defs>
			<rect id="SVGID_1_" width="1811.9" height="2606"/>
		</defs>
		<clipPath id="SVGID_00000032638454878058957280000003243556945723967158_">
			<use xlink:href="#SVGID_1_"  style="overflow:visible;"/>
		</clipPath>
		<g style="clip-path:url(#SVGID_00000032638454878058957280000003243556945723967158_);">
			<rect class="st1" width="1825.6" height="2606"/>
			<g class="st2">
				<path class="st3" d="M953.6,1126.3c-119,0-215.4,96.4-215.4,215.4s96.4,215.4,215.4,215.4c119,0,215.4-96.5,215.4-215.4
					S1072.6,1126.3,953.6,1126.3L953.6,1126.3z"/>
				<g>
					<path class="st3" d="M977.1,1055c0,12.1-9,21.9-20.2,21.9l0,0c-11.2,0-20.2-9.8-20.2-21.9v-38.6c0-12.1,9-21.9,20.2-21.9l0,0
						c11.2,0,20.2,9.8,20.2,21.9V1055z"/>
					<path class="st3" d="M977.1,1644.3c0,12.1-9,21.9-20.2,21.9l0,0c-11.2,0-20.2-9.8-20.2-21.9v-38.6c0-12.1,9-21.9,20.2-21.9l0,0
						c11.2,0,20.2,9.8,20.2,21.9V1644.3z"/>
					<path class="st3" d="M1232.2,1350.6c-12.1,0-21.9-9-21.9-20.2l0,0c0-11.2,9.8-20.2,21.9-20.2h38.6c12.1,0,21.9,9,21.9,20.2l0,0
						c0,11.2-9.8,20.2-21.9,20.2H1232.2z"/>
					<path class="st3" d="M643,1350.6c-12.1,0-21.9-9-21.9-20.2l0,0c0-11.2,9.8-20.2,21.9-20.2h38.6c12.1,0,21.9,9,21.9,20.2l0,0
						c0,11.2-9.8,20.2-21.9,20.2H643z"/>
					<path class="st3" d="M1165.8,1150c-8.5,8.5-21.9,9.1-29.7,1.2l0,0c-7.9-7.9-7.4-21.2,1.2-29.7l27.3-27.3
						c8.5-8.5,21.8-9.1,29.7-1.2l0,0c7.9,7.9,7.4,21.2-1.2,29.7L1165.8,1150L1165.8,1150z"/>
					<path class="st3" d="M749.2,1566.6c-8.5,8.5-21.9,9.1-29.7,1.2l0,0c-7.9-7.9-7.3-21.2,1.2-29.7l27.3-27.3
						c8.5-8.5,21.8-9.1,29.7-1.2l0,0c7.9,7.9,7.3,21.2-1.2,29.8L749.2,1566.6L749.2,1566.6z"/>
					<path class="st3" d="M1137.3,1539.4c-8.5-8.5-9.1-21.9-1.2-29.8l0,0c7.9-7.9,21.2-7.3,29.7,1.2l27.3,27.3
						c8.5,8.5,9.1,21.9,1.2,29.7l0,0c-7.9,7.9-21.2,7.4-29.8-1.2L1137.3,1539.4z"/>
					<path class="st3" d="M720.6,1122.7c-8.5-8.5-9.1-21.8-1.2-29.7l0,0c7.9-7.9,21.2-7.3,29.7,1.2l27.3,27.3
						c8.5,8.5,9.1,21.8,1.2,29.7l0,0c-7.9,7.9-21.2,7.4-29.7-1.2L720.6,1122.7L720.6,1122.7z"/>
				</g>
			</g>
			<path class="st4" d="M1783.9,744.5c4.9-36.3-20-68.2-55.3-76.7c-8.3-2-17.1-2.6-25.5-2.3c0.2-0.8,0.4-1.4,0.8-2.2
				c4.6-13.1,6.2-30,1.7-43.4c-4.7-13.6-11.6-27-21-37.9c-17.9-20.7-44.8-32-71.5-35.7c-14.2-1.8-28.1-0.8-42.1,1.4
				c0-10.7-1.5-21.1-4.1-31.4c-6.9-27.2-28.7-50.9-51.5-66.7c-23.9-16.6-53.3-19.1-81.4-13c-2.9,0.6-5.8,1.4-8.8,2.3
				c-10-22.5-35.8-35.7-59.4-40.4c-15.8-3.2-33-2.1-48.4,2.2c-14.8,4.2-27.2,12.1-38.8,21.9c-11.4,9.4-20.3,22.7-27.1,35.7
				c-7.3,14.4-8.6,31.2-8,47c0.4,13,4.9,24.4,11.5,35.1c-3.3,1.8-6.4,3.8-9.3,6.3c-9.4,8-16.4,18.6-19.6,29.9
				c-3.7-1.6-7.4-3-11.3-4.1c-14.6-4.3-29.4-5.3-44.5-4.5c-14.6,0.9-28.8,6.3-41.8,12.8c-26.3,13.2-51.5,28.4-65.2,55.5
				c-3.4,6.9-5.9,14.8-7.2,23.1c-2.5-0.7-5-1.3-7.4-1.8c-19-3.7-38.3-2.2-56.3,5c-32.4,12.7-53.3,48.5-55.1,81.8
				c-0.1,1.7-0.1,3.4,0,5.1h845.5C1783.2,748,1783.6,746.3,1783.9,744.5L1783.9,744.5z"/>
			<path class="st4" d="M1928.7,1862.8c-9.5-2.2-19.6-3-29.3-2.7c0.3-0.8,0.5-1.6,0.9-2.4c5.1-15.2,7.1-34.5,1.9-49.8
				c-5.3-15.7-13.3-31-24.1-43.6c-20.5-23.7-51.5-36.8-82.2-41c-16.2-2.2-32.3-1-48.3,1.6c-0.1-12.2-1.7-24.3-4.8-36.1
				c-7.9-31.2-32.9-58.5-59.1-76.7c-27.6-19.2-61.5-22-93.6-15c-3.4,0.8-6.7,1.7-10.1,2.7c-11.6-25.9-41.3-41-68.5-46.5
				c-18-3.7-37.9-2.4-55.5,2.6c-17.1,4.7-31.3,13.9-44.6,25.1c-13.1,10.9-23.3,26.1-31,41.1c-8.5,16.5-9.9,35.8-9.3,54
				c0.5,14.9,5.7,28.1,13.3,40.3c-3.8,2-7.4,4.3-10.8,7.3c-10.8,9.2-18.9,21.4-22.5,34.4c-4.2-1.8-8.4-3.3-12.9-4.6
				c-16.8-4.9-33.7-6.1-51.1-5.2c-16.8,1-33.1,7.3-48,14.7c-30.3,15.1-59.2,32.7-74.9,63.8c-3.9,7.9-6.7,17.1-8.2,26.5
				c-2.9-0.7-5.8-1.4-8.6-2c-21.8-4.3-43.9-2.5-64.6,5.6c-37.1,14.6-61.3,55.8-63.3,94.2c-0.2,3-0.2,6.1,0,9h971
				c0.8-3,1.5-6,1.9-9.1C1998,1909.2,1969.2,1872.6,1928.7,1862.8L1928.7,1862.8z"/>
			<path class="st5" d="M1702.2,714.5c0.4-1.7,0.8-3.4,1-5.1c4.9-36.3-20-68.2-55.3-76.7c-8.3-2-17.1-2.6-25.5-2.3
				c0.2-0.8,0.4-1.4,0.8-2.2c4.6-13.1,6.2-30,1.7-43.4c-4.7-13.6-11.6-27-21-37.9c-17.9-20.7-44.8-32-71.5-35.7
				c-14.2-1.8-28.1-0.9-42.1,1.4c0-10.6-1.5-21.1-4.1-31.4c-6.9-27.2-28.7-50.9-51.5-66.7c-23.9-16.6-53.3-19.1-81.4-13
				c-2.9,0.6-5.8,1.4-8.8,2.3c-10-22.5-35.8-35.7-59.4-40.4c-15.8-3.2-33-2.1-48.4,2.2c-14.8,4.2-27.2,12.1-38.8,21.9
				c-11.4,9.4-20.3,22.7-27.1,35.7c-7.3,14.4-8.6,31.2-8,47c0.4,13,4.9,24.4,11.5,35.1c-3.3,1.8-6.4,3.8-9.3,6.3
				c-9.4,8-16.4,18.6-19.6,29.9c-3.7-1.6-7.4-3-11.3-4.1c-14.6-4.3-29.4-5.3-44.5-4.5c-14.6,0.9-28.8,6.3-41.8,12.8
				c-26.3,13.2-51.5,28.4-65.2,55.5c-3.4,6.9-5.9,14.8-7.2,23.1c-2.5-0.7-5-1.3-7.4-1.8c-19-3.7-38.3-2.2-56.3,5
				c-32.4,12.7-53.3,48.5-55.1,81.8c-0.1,1.7-0.1,3.4,0,5.1L1702.2,714.5L1702.2,714.5z"/>
			<path class="st4" d="M946.9,1196.5c1.3-4,2.4-8,2.9-12.2c5.1-36.6-20.1-68.7-55.6-77.3c-8.3-1.9-17.2-2.6-25.7-2.3
				c0.3-0.7,0.5-1.4,0.8-2.1c4.5-13.3,6.2-30.2,1.7-43.7c-4.7-13.8-11.6-27.2-21.2-38.2c-18-20.8-45.1-32.2-72-35.9
				c-14.2-1.9-28.3-0.9-42.3,1.4c-0.1-10.7-1.5-21.3-4.2-31.6c-6.9-27.4-28.9-51.2-51.8-67.2c-24.1-16.8-53.8-19.3-82-13.2
				c-3,0.7-5.9,1.5-8.8,2.4c-10.1-22.7-36.2-35.9-60-40.7c-15.8-3.2-33.2-2.1-48.6,2.3c-15,4.1-27.4,12.1-39.1,22
				c-11.5,9.5-20.4,22.9-27.2,36c-7.4,14.5-8.6,31.4-8.2,47.3c0.4,13.1,4.9,24.6,11.7,35.4c-3.3,1.8-6.5,3.8-9.4,6.4
				c-9.4,8.1-16.5,18.7-19.7,30.1c-3.7-1.6-7.4-3-11.3-4.1c-14.7-4.3-29.5-5.4-44.8-4.5c-14.7,0.8-29,6.4-42.1,12.9
				c-26.5,13.2-51.9,28.6-65.6,55.9c-3.4,7-5.9,14.9-7.2,23.2c-2.5-0.6-5.1-1.2-7.6-1.8c-19.1-3.8-38.4-2.2-56.6,4.9
				c-32.5,12.8-53.6,48.9-55.5,82.5c-0.2,4.1,0,8.2,0.4,12.1L946.9,1196.5L946.9,1196.5z"/>
			<path class="st5" d="M914.7,1172.5c1.3-4,2.4-8,2.9-12.2c5.1-36.6-20.1-68.7-55.6-77.3c-8.3-1.9-17.2-2.6-25.7-2.3
				c0.3-0.7,0.5-1.4,0.8-2.1c4.5-13.3,6.2-30.2,1.7-43.7c-4.7-13.8-11.6-27.2-21.2-38.2c-18-20.8-45.1-32.2-72-35.9
				c-14.2-1.9-28.3-0.9-42.3,1.4c-0.1-10.7-1.5-21.3-4.2-31.6c-6.9-27.4-28.9-51.2-51.8-67.2c-24.1-16.8-53.8-19.3-82-13.2
				c-3,0.7-5.9,1.5-8.8,2.4c-10.1-22.7-36.2-35.9-60-40.7c-15.8-3.2-33.2-2.1-48.6,2.3c-15,4.1-27.4,12.1-39.1,22
				c-11.5,9.5-20.4,22.9-27.2,36c-7.4,14.5-8.6,31.4-8.2,47.3c0.4,13.1,4.9,24.6,11.7,35.4c-3.3,1.8-6.5,3.8-9.4,6.4
				c-9.4,8.1-16.5,18.7-19.7,30.1c-3.7-1.6-7.4-3-11.3-4.1c-14.7-4.3-29.5-5.4-44.8-4.5c-14.7,0.8-29,6.4-42.1,12.9
				c-26.5,13.2-51.9,28.6-65.6,55.9c-3.4,7-5.9,14.9-7.2,23.2c-2.5-0.6-5.1-1.2-7.6-1.8c-19.1-3.8-38.4-2.2-56.6,4.9
				c-32.5,12.8-53.6,48.9-55.5,82.5c-0.2,4.1,0,8.2,0.4,12.1L914.7,1172.5L914.7,1172.5z"/>
			<g>
				<path class="st6" d="M922.6,1115c-119,0-215.4,96.4-215.4,215.4c0,119,96.4,215.4,215.4,215.4c119,0,215.4-96.5,215.4-215.4
					C1138,1211.4,1041.6,1115,922.6,1115L922.6,1115z"/>
				<g>
					<path class="st6" d="M946.1,1043.7c0,12.1-9,21.9-20.2,21.9l0,0c-11.2,0-20.2-9.8-20.2-21.9v-38.6c0-12.1,9-21.9,20.2-21.9l0,0
						c11.2,0,20.2,9.8,20.2,21.9V1043.7z"/>
					<path class="st6" d="M946.1,1632.9c0,12.1-9,21.9-20.2,21.9l0,0c-11.2,0-20.2-9.8-20.2-21.9v-38.6c0-12.1,9-21.9,20.2-21.9l0,0
						c11.2,0,20.2,9.8,20.2,21.9V1632.9z"/>
					<path class="st6" d="M1201.2,1339.2c-12.1,0-21.9-9-21.9-20.2l0,0c0-11.2,9.8-20.2,21.9-20.2h38.6c12.1,0,21.9,9,21.9,20.2l0,0
						c0,11.2-9.8,20.2-21.9,20.2H1201.2z"/>
					<path class="st6" d="M612,1339.2c-12.1,0-21.9-9-21.9-20.2l0,0c0-11.2,9.8-20.2,21.9-20.2h38.6c12.1,0,21.9,9,21.9,20.2l0,0
						c0,11.2-9.8,20.2-21.9,20.2H612z"/>
					<path class="st6" d="M1134.8,1138.6c-8.5,8.5-21.9,9.1-29.7,1.2l0,0c-7.9-7.9-7.4-21.2,1.2-29.7l27.3-27.3
						c8.5-8.5,21.8-9.1,29.7-1.2l0,0c7.9,7.9,7.4,21.2-1.2,29.7L1134.8,1138.6L1134.8,1138.6z"/>
					<path class="st6" d="M718.2,1555.2c-8.5,8.5-21.9,9.1-29.7,1.2l0,0c-7.9-7.9-7.3-21.2,1.2-29.7l27.3-27.3
						c8.5-8.5,21.8-9.1,29.7-1.2l0,0c7.9,7.9,7.3,21.2-1.2,29.8L718.2,1555.2L718.2,1555.2z"/>
					<path class="st6" d="M1106.3,1528c-8.5-8.5-9.1-21.9-1.2-29.8l0,0c7.9-7.9,21.2-7.3,29.7,1.2l27.3,27.3
						c8.5,8.5,9.1,21.9,1.2,29.7l0,0c-7.9,7.9-21.2,7.4-29.8-1.2L1106.3,1528z"/>
					<path class="st6" d="M689.6,1111.3c-8.5-8.5-9.1-21.8-1.2-29.7l0,0c7.9-7.9,21.2-7.3,29.7,1.2l27.3,27.3
						c8.5,8.5,9.1,21.8,1.2,29.7l0,0c-7.9,7.9-21.2,7.4-29.7-1.2L689.6,1111.3L689.6,1111.3z"/>
				</g>
			</g>
			<path class="st5" d="M1921.6,1924.9c0.8-3,1.5-6,1.9-9.1c5.8-41.8-22.9-78.5-63.5-88.2c-9.5-2.2-19.6-3-29.3-2.7
				c0.3-0.8,0.5-1.7,0.9-2.4c5.1-15.2,7.1-34.5,1.9-49.8c-5.3-15.7-13.3-31-24.1-43.6c-20.5-23.7-51.5-36.8-82.2-41
				c-16.2-2.2-32.3-1-48.3,1.6c-0.1-12.2-1.7-24.3-4.8-36.1c-7.9-31.2-32.9-58.5-59.1-76.7c-27.6-19.2-61.5-22-93.6-15
				c-3.4,0.8-6.7,1.7-10.1,2.7c-11.6-25.9-41.3-41-68.5-46.5c-18-3.7-37.9-2.4-55.5,2.6c-17.1,4.7-31.3,13.9-44.6,25.1
				c-13.1,10.9-23.3,26.1-31,41.1c-8.5,16.5-9.9,35.8-9.3,54c0.5,14.9,5.7,28.1,13.3,40.3c-3.8,2-7.4,4.3-10.8,7.3
				c-10.8,9.2-18.9,21.4-22.5,34.4c-4.2-1.8-8.4-3.3-12.9-4.6c-16.8-4.9-33.7-6.1-51.1-5.2c-16.8,1-33.1,7.3-48,14.7
				c-30.3,15.1-59.2,32.7-74.9,63.8c-3.9,7.9-6.7,17.1-8.2,26.5c-2.9-0.7-5.8-1.3-8.6-2c-21.8-4.3-43.9-2.5-64.6,5.6
				c-37.1,14.7-61.3,55.8-63.3,94.2c-0.2,3-0.2,6.1,0,9L1921.6,1924.9L1921.6,1924.9z"/>
		</g>
	</g>
</g>
</svg>
