<?xml version="1.0" encoding="utf-8"?>
<!-- Generator: Adobe Illustrator 27.1.1, SVG Export Plug-In . SVG Version: 6.00 Build 0)  -->
<svg version="1.1" id="Warstwa_1" xmlns="http://www.w3.org/2000/svg" xmlns:xlink="http://www.w3.org/1999/xlink" x="0px" y="0px"
	 viewBox="0 0 1811.9 2620" style="enable-background:new 0 0 1811.9 2620;" xml:space="preserve">
<style type="text/css">
	.st0{fill:#2D3151;}
	.st1{opacity:0.3;fill:#2D3151;enable-background:new    ;}
	.st2{fill:#FFE700;}
	.st3{fill:#FFE400;}
</style>
<g>
	<g id="Warstwa_2_00000057147765557800013220000007056552849540929186_">
		<g id="Layer_1">
			<g>
				<rect class="st0" width="1811.9" height="2620"/>
				<polygon class="st1" points="1489.7,1016.1 1521.4,980.1 1569,985.8 1544.7,944.6 1564.8,901.1 1518,911.5 1482.8,878.9 
					1478.3,926.7 1436.5,950 1480.5,969.1 				"/>
				<path class="st1" d="M881.1,1050.3c-62.2,0-120.5,16.5-170.9,45.3c143.5,26.1,252.4,151.6,252.4,302.7s-105,272.2-244.7,301.2
					c48.6,26.1,104.2,41,163.2,41c190.6,0,345.1-154.5,345.1-345.1S1071.7,1050.3,881.1,1050.3z"/>
				<polygon class="st1" points="1436.3,1571.3 1406.9,1577.9 1384.8,1557.4 1382,1587.4 1355.6,1602.1 1383.3,1614.1 
					1389.1,1643.7 1409.1,1621 1439,1624.6 1423.7,1598.7 				"/>
				<polygon class="st1" points="333.1,1001.7 304.5,1008.1 282.9,988.2 280.2,1017.4 254.6,1031.7 281.5,1043.3 287.2,1072.1 
					306.6,1050.1 335.7,1053.6 320.8,1028.3 				"/>
				<polygon class="st1" points="1595.9,1249.8 1579.5,1253.5 1567.2,1242.1 1565.7,1258.8 1551.1,1266.9 1566.4,1273.6 
					1569.7,1290 1580.7,1277.4 1597.4,1279.4 1588.8,1265 				"/>
				<polygon class="st1" points="1056.7,891.9 1063.7,876.7 1047.4,880.4 1035.1,869 1033.6,885.6 1019,893.8 1034.3,900.5 
					1037.6,916.9 1048.6,904.3 1065.2,906.3 				"/>
				<polygon class="st1" points="331.3,1580.1 314.9,1583.7 302.6,1572.4 301.1,1589 286.5,1597.2 301.8,1603.8 305.1,1620.3 
					316.1,1607.7 332.8,1609.7 324.2,1595.3 				"/>
				<polygon class="st1" points="632.9,1278.4 588.3,1237.1 582.6,1297.6 529.6,1327.1 585.4,1351.3 597.1,1410.9 637.2,1365.3 
					697.5,1372.5 666.6,1320.2 692.1,1265.2 				"/>
				<polygon class="st2" points="1540.1,957.8 1492.5,952.1 1460.8,988.1 1451.6,941.1 1407.5,922 1449.4,898.6 1453.9,850.9 
					1489.1,883.5 1535.9,873.1 1515.7,916.6 				"/>
				<path class="st3" d="M911.1,1340.2c0-151-108.8-276.6-252.4-302.7c50.4-28.8,108.7-45.3,170.9-45.3
					c190.6,0,345.1,154.5,345.1,345.1s-154.5,345.1-345.1,345.1c-59,0-114.6-14.8-163.2-41C806.2,1612.4,911.1,1488.6,911.1,1340.2
					L911.1,1340.2z"/>
				<polygon class="st2" points="1427.5,1608 1397.6,1604.4 1377.7,1627.1 1371.9,1597.5 1344.2,1585.5 1370.5,1570.8 
					1373.3,1540.8 1395.5,1561.3 1424.9,1554.7 1412.2,1582 				"/>
				<polygon class="st2" points="306.8,1025.6 277.7,1022.1 258.3,1044.1 252.6,1015.3 225.7,1003.7 251.3,989.4 254,960.2 
					275.6,980.1 304.2,973.7 291.9,1000.3 				"/>
				<polygon class="st2" points="1568.4,1251.4 1551.8,1249.4 1540.8,1262 1537.5,1245.5 1522.2,1238.9 1536.8,1230.7 
					1538.3,1214.1 1550.6,1225.5 1567,1221.8 1559.9,1237 				"/>
				<polygon class="st2" points="1036.3,878.3 1019.7,876.3 1008.6,888.9 1005.4,872.4 990,865.8 1004.6,857.6 1006.2,841 
					1018.5,852.3 1034.8,848.7 1027.8,863.9 				"/>
				<polygon class="st2" points="303.8,1581.7 287.2,1579.7 276.2,1592.2 272.9,1575.8 257.6,1569.2 272.2,1561 273.7,1544.3 
					286,1555.7 302.3,1552.1 295.3,1567.2 				"/>
				<polygon class="st2" points="668.6,1344.5 608.3,1337.2 568.2,1382.9 556.5,1323.3 500.7,1299.1 553.7,1269.5 559.4,1209.1 
					604,1250.4 663.2,1237.1 637.7,1292.2 				"/>
			</g>
		</g>
	</g>
</g>
</svg>
