<?xml version="1.0" encoding="UTF-8"?><svg xmlns="http://www.w3.org/2000/svg" viewBox="0 0 1811.93 2619.97"><defs><style>.cls-1{fill:#ffe400;}.cls-2{fill:#ffe700;}.cls-3{isolation:isolate;}.cls-4{mix-blend-mode:multiply;opacity:.3;}.cls-4,.cls-5{fill:#2d3151;}</style></defs><g class="cls-3"><g id="Warstwa_2"><g id="Layer_1"><g><rect class="cls-5" width="1811.93" height="2619.97"/><polygon class="cls-4" points="1021.49 760.26 1053.18 724.24 1100.78 729.96 1076.4 688.69 1096.52 645.19 1049.75 655.64 1014.52 623.04 1010.06 670.78 968.2 694.14 1012.21 713.22 1021.49 760.26"/><path class="cls-4" d="m881.1,1050.33c-62.2,0-120.48,16.54-170.91,45.32,143.53,26.1,252.37,151.64,252.37,302.65s-104.97,272.15-244.7,301.24c48.6,26.13,104.19,40.98,163.24,40.98,190.58,0,345.1-154.52,345.1-345.1s-154.52-345.09-345.1-345.09Z"/><polygon class="cls-4" points="1341.51 1488.62 1312.1 1495.18 1289.95 1474.7 1287.15 1504.71 1260.83 1519.39 1288.51 1531.4 1294.34 1560.97 1314.26 1538.32 1344.19 1541.91 1328.85 1515.96 1341.51 1488.62"/><polygon class="cls-4" points="1135.05 2312.83 1106.44 2319.22 1084.89 2299.28 1082.16 2328.48 1056.55 2342.77 1083.49 2354.43 1089.15 2383.22 1108.55 2361.2 1137.67 2364.68 1122.75 2339.44 1135.05 2312.83"/><polygon class="cls-4" points="443.33 281.27 427.01 284.93 414.71 273.54 413.15 290.21 398.55 298.37 413.91 305.02 417.15 321.43 428.21 308.86 444.82 310.86 436.31 296.45 443.33 281.27"/><polygon class="cls-4" points="1437.12 361.81 1444.14 346.63 1427.82 350.28 1415.52 338.9 1413.97 355.56 1399.36 363.72 1414.72 370.37 1417.96 386.79 1429.02 374.22 1445.64 376.22 1437.12 361.81"/><polygon class="cls-4" points="418.09 1889.44 401.77 1893.09 389.47 1881.7 387.92 1898.36 373.31 1906.52 388.68 1913.18 391.91 1929.6 402.97 1917.03 419.59 1919.02 411.07 1904.61 418.09 1889.44"/><polygon class="cls-4" points="745.77 1283.37 701.15 1242.1 695.51 1302.54 642.5 1332.13 698.25 1356.29 710 1415.86 750.12 1370.24 810.41 1377.49 779.51 1325.22 804.99 1270.15 745.77 1283.37"/><polygon class="cls-2" points="1071.87 701.94 1024.27 696.22 992.58 732.24 983.3 685.21 939.28 666.12 981.15 642.76 985.6 595.02 1020.84 627.62 1067.6 617.17 1047.49 660.67 1071.87 701.94"/><path class="cls-1" d="m911.14,1340.24c0-151.01-108.84-276.55-252.37-302.65,50.43-28.78,108.71-45.32,170.91-45.32,190.58,0,345.1,154.51,345.1,345.09s-154.52,345.1-345.1,345.1c-59.05,0-114.64-14.85-163.24-40.98,139.73-29.08,244.7-152.89,244.7-301.24Z"/><polygon class="cls-2" points="1332.73 1525.27 1302.8 1521.68 1282.88 1544.34 1277.05 1514.76 1249.38 1502.75 1275.69 1488.08 1278.5 1458.06 1300.65 1478.55 1330.05 1471.98 1317.4 1499.32 1332.73 1525.27"/><polygon class="cls-2" points="1108.76 2336.66 1079.64 2333.18 1060.24 2355.2 1054.58 2326.41 1027.64 2314.75 1053.24 2300.47 1055.98 2271.26 1077.53 2291.2 1106.13 2284.81 1093.83 2311.42 1108.76 2336.66"/><polygon class="cls-2" points="415.91 282.84 399.3 280.85 388.23 293.42 385 277 369.64 270.35 384.24 262.19 385.8 245.53 398.1 256.91 414.42 253.26 407.4 268.43 415.91 282.84"/><polygon class="cls-2" points="1416.72 348.2 1400.11 346.2 1389.05 358.77 1385.81 342.35 1370.45 335.7 1385.05 327.54 1386.61 310.88 1398.91 322.26 1415.23 318.61 1408.21 333.79 1416.72 348.2"/><polygon class="cls-2" points="390.67 1891 374.06 1889.01 363 1901.58 359.76 1885.16 344.4 1878.5 359 1870.34 360.56 1853.68 372.86 1865.07 389.18 1861.42 382.16 1876.59 390.67 1891"/><polygon class="cls-2" points="781.49 1349.47 721.21 1342.22 681.08 1387.84 669.33 1328.27 613.59 1304.11 666.6 1274.53 672.24 1214.08 716.86 1255.35 776.08 1242.13 750.6 1297.2 781.49 1349.47"/></g></g></g></g></svg>